#!OML:ASF F:\VICON\USERDATA\INSTALL\rory3\rory3.ASF
:FULLY-SPECIFIED
:DEGREES
61
root -5.26333 16.6047 16.5895 207.229 -9.89327 -180.548
lowerback 1.40926 5.61131 5.99152
upperback -2.85824 7.43132 3.88573
thorax -3.49815 3.41555 0.395481
lowerneck -8.30754 -10.9012 -16.0295
upperneck 23.0531 -17.4383 11.856
head 11.2935 -8.68382 4.42492
rclavicle -9.06458e-014 -1.145e-013
rhumerus 14.6033 -0.741052 -48.4855
rradius 26.9622
rwrist 22.7685
rhand -35.966 -42.7154
rfingers 7.12502
rthumb -9.07697 -72.5001
lclavicle -9.06458e-014 -1.145e-013
lhumerus -20.2515 22.3792 -15.2102
lradius 34.0701
lwrist 17.3598
lhand -43.2479 -48.5573
lfingers 7.12502
lthumb -16.0971 -19.2058
rfemur -63.1602 -4.29699 16.3328
rtibia 43.2637
rfoot -7.72085 -16.8311
rtoes -14.0792
lfemur -34.1571 -7.9994 -16.9034
ltibia 38.4547
lfoot -31 30.4066
ltoes -1.86041
62
root -5.25659 16.604 16.5657 207.818 -9.65898 -180.541
lowerback 1.75104 5.57909 6.38221
upperback -2.62569 7.40746 4.0396
thorax -3.421 3.39301 0.322693
lowerneck -8.4497 -11.0883 -16.0523
upperneck 22.5501 -17.5557 11.9339
head 11.164 -8.69956 4.42626
rclavicle 9.06458e-014 5.40694e-014
rhumerus 15.193 -1.02518 -48.4439
rradius 26.6909
rwrist 23.0433
rhand -35.8818 -45.3166
rfingers 7.12502
rthumb -8.99573 -75.1048
lclavicle 9.06458e-014 5.40694e-014
lhumerus -18.7616 22.52 -14.9098
lradius 34.1835
lwrist 17.1413
lhand -43.1594 -46.402
lfingers 7.12502
lthumb -16.0119 -17.0437
rfemur -64.0858 -4.95737 17.2484
rtibia 43.479
rfoot -7.17286 -16.0393
rtoes -12.5704
lfemur -34.527 -8.17801 -16.8441
ltibia 38.2457
lfoot -31.0282 30.86
ltoes -1.44769
63
root -5.22654 16.6029 16.5162 208.354 -9.46815 -180.409
lowerback 2.13055 5.46136 6.66631
upperback -2.49851 7.278 4.20476
thorax -3.49389 3.31481 0.313121
lowerneck -8.65364 -11.0737 -15.9554
upperneck 22.3443 -17.449 11.9396
head 11.1006 -8.62189 4.42205
rclavicle 2.94201e-014 1.30403e-013
rhumerus 15.6997 -1.10885 -48.7747
rradius 26.2859
rwrist 23.4156
rhand -35.8826 -46.1677
rfingers 7.12502
rthumb -8.99656 -75.9559
lclavicle 2.94201e-014 1.30403e-013
lhumerus -17.2144 22.1733 -14.9013
lradius 34.1556
lwrist 16.9751
lhand -43.8153 -45.5899
lfingers 7.12502
lthumb -16.6434 -16.2834
rfemur -64.8117 -4.90094 17.9008
rtibia 43.6225
rfoot -7.07741 -15.8173
rtoes -9.21394
lfemur -34.8961 -8.08807 -16.5658
ltibia 38.1255
lfoot -30.9728 31.1756
ltoes -1.56475
64
root -5.1836 16.6034 16.4494 208.794 -9.37956 -180.366
lowerback 2.48718 5.26534 6.7007
upperback -2.35949 7.03662 4.43141
thorax -3.58364 3.18962 0.508278
lowerneck -8.9177 -11.0066 -15.8595
upperneck 22.2015 -17.243 11.8684
head 11.0486 -8.50499 4.40512
rclavicle 3.97569e-014 0
rhumerus 16.2139 -1.14163 -49.2382
rradius 25.8192
rwrist 23.8157
rhand -35.7258 -46.1111
rfingers 7.12502
rthumb -8.84517 -75.9057
lclavicle 3.97569e-014 0
lhumerus -15.7336 21.6712 -15.0691
lradius 33.9536
lwrist 16.5544
lhand -44.0977 -45.5939
lfingers 7.12502
lthumb -16.9153 -16.3105
rfemur -65.293 -4.59284 18.2599
rtibia 43.7619
rfoot -7.18415 -16.1465
rtoes -6.29746
lfemur -35.1033 -7.77868 -16.3562
ltibia 37.9912
lfoot -30.8711 31.2168
ltoes -2.1357
65
root -5.14489 16.5852 16.4014 209.747 -8.79412 -180.082
lowerback 2.28902 5.35002 6.60732
upperback -2.20184 7.08882 4.71705
thorax -3.35215 3.21626 0.876288
lowerneck -9.29543 -11.0877 -15.8622
upperneck 21.9474 -17.1716 11.7791
head 11.0083 -8.44323 4.36501
rclavicle -8.42847e-014 1.33583e-013
rhumerus 16.8279 -1.16075 -49.4018
rradius 25.5216
rwrist 23.7854
rhand -35.6832 -46.75
rfingers 7.12502
rthumb -8.80408 -76.5463
lclavicle -8.42847e-014 1.33583e-013
lhumerus -14.5972 21.6391 -15.1284
lradius 33.9176
lwrist 15.8498
lhand -43.8991 -45.7356
lfingers 7.12502
lthumb -16.724 -16.4359
rfemur -66.5557 -4.03229 18.8289
rtibia 43.8688
rfoot -7.07461 -16.5358
rtoes -4.95137
lfemur -35.9536 -7.92702 -15.8417
ltibia 37.8982
lfoot -31.3059 31.8872
ltoes -1.69843
